<?xml version="1.0" encoding="utf-8"?>
<!-- Generator: Adobe Illustrator 27.5.0, SVG Export Plug-In . SVG Version: 6.00 Build 0)  -->
<svg version="1.1" xmlns="http://www.w3.org/2000/svg" xmlns:xlink="http://www.w3.org/1999/xlink" x="0px" y="0px"
	 viewBox="0 0 2200 1466" style="enable-background:new 0 0 2200 1466;" xml:space="preserve">
<g id="background">
	<rect style="fill:#FFFFFF;" width="2200" height="1466"/>
</g>
<g id="Objects">
	<g>
		<path d="M1433.421,1089.71C1429.482,1089.259,1431.212,1089.49,1433.421,1089.71L1433.421,1089.71z"/>
		<path d="M2045.15,604.651c0-0.939-0.206-1.784-0.546-2.557c-13.432-62.919-28.951-125.714-57.668-183.645
			c-8.54-17.228-18.091-33.927-28.394-50.159c-4.582-7.22-16.304-9.233-24.107-9.061c-8.724,0.193-18.473,1.791-24.107,9.061
			c-43.356,55.948-79.501,118.555-108.477,183.065c-7.634,16.995-14.679,34.261-20.792,51.864
			c-2.659,7.657,4.985,12.189,11.489,13.938c9.218,2.478,21.745,3.035,30.296-1.93c28.207-16.377,55.95-33.56,83.197-51.493
			c-5.512,76.837-29.615,153.308-61.971,222.385c-42.326,90.363-103.601,175.903-185.694,234.104
			c-20.768,14.723-42.803,27.675-65.897,38.399c-10.33,4.797-21.576,9.262-33.209,13.27c-13.103,4.514-22.898,7.307-34.037,9.853
			c-6.229,1.423-12.494,2.687-18.787,3.793c-3.01,0.529-6.027,1.007-9.046,1.479c-0.371,0.058-0.679,0.107-0.945,0.15
			c-0.316,0.035-0.706,0.078-1.203,0.136c-2.048,0.238-4.091,0.512-6.14,0.743c-6.209,0.701-12.435,1.25-18.67,1.65
			c-0.012,0.001-0.984,0.061-1.99,0.123c-0.854,0.03-4.005,0.183-4.02,0.183c-3.915,0.125-7.832,0.191-11.749,0.202
			c-3.708,0.01-7.416-0.029-11.123-0.113c-1.732-0.039-3.464-0.088-5.195-0.146c-0.699-0.023-1.876-0.128-2.944-0.234
			c0.529,0.061,1.15,0.132,1.896,0.219c-8.261-0.961-16.692-1.017-24.985-1.798c-8.471-0.797-16.914-1.814-25.349-2.921
			c-0.446-0.058-0.805-0.105-1.101-0.143c-0.313-0.049-0.706-0.109-1.215-0.187c-2.334-0.355-4.668-0.709-7-1.082
			c-4.753-0.761-9.498-1.574-14.233-2.438c-9.797-1.787-19.554-3.791-29.263-6.009c-4.494-1.026-8.977-2.098-13.449-3.217
			c-1.255-0.314-2.507-0.635-3.761-0.952c-0.106-0.027-0.197-0.05-0.278-0.07c-2.507-0.677-5.016-1.344-7.518-2.038
			c-20.489-5.683-40.711-12.341-60.535-20.032c-20.481-7.945-37.245-15.525-57.647-26.382
			c-24.628-13.106-48.091-28.33-69.814-45.574c29.256-26.854,54.277-58.357,73.328-94.367
			c31.844-60.189,47.276-129.378,42.036-197.388c-2.606-33.82-10.449-66.933-23.315-98.314
			c-12.964-31.62-30.997-62.047-58.689-82.87c-31.002-23.312-74.656-28.212-111.851-20.262
			c-34.077,7.283-63.054,27.593-79.933,58.288c-30.83,56.066-37.495,124.481-30.39,187.085
			c6.013,52.977,22.535,104.811,49.925,150.661c22.39,37.481,51.696,69.932,85.174,97.695c-42.131,36.85-92.6,63.726-146.243,79.711
			c-31.128,9.276-59.626,13.996-91.592,15.475c-0.429,0.011-0.979,0.026-1.712,0.045c-2.11,0.055-4.219,0.116-6.33,0.152
			c-3.797,0.065-7.596,0.081-11.393,0.045c-3.893-0.037-7.786-0.128-11.677-0.276c-0.674-0.032-1.636-0.077-1.909-0.094
			c-2.945-0.19-5.889-0.369-8.832-0.599c-17.348-1.355-29.827-3.114-46.908-6.533c-66.426-13.296-129.014-42.718-184.069-81.87
			c-57.318-40.762-105.107-92.432-143.237-150.69c18.072-35.457,36.145-70.914,54.217-106.371
			c2.602-5.106,5.205-10.211,7.807-15.317c2.412-4.731-22.958-6.377-25-6.354c-5.853,0.067-12.026,0.221-17.678,1.861
			c-2.985,0.866-5.829,1.564-7.322,4.493c-12.997,25.499-25.994,50.998-38.99,76.496c-19.966-36.807-36.43-75.6-49.373-115.442
			c23.635-29.433,47.269-58.866,70.904-88.299c3.687-4.591,7.374-9.182,11.06-13.774c15.384-19.158-32.326-27.413-43.174-13.904
			c-17.681,22.018-35.361,44.036-53.042,66.055c-7.721-31.198-13.441-62.86-17.346-94.763c-1.613-13.178-51.314-10.733-50,0
			c4.5,36.768,11.548,73.458,21.218,109.479c-20.499-11.147-40.999-22.294-61.498-33.441c-5.3-2.882-10.599-5.764-15.899-8.646
			c-9.927-5.398-25.525-6.077-35.355,0c-3.513,2.172-7.322,5.14-7.322,9.74c0,4.364,3.823,7.837,7.322,9.74
			c37.051,20.148,74.102,40.295,111.153,60.443c5.213,2.835,10.426,5.669,15.639,8.504c14.557,42.995,33.063,84.613,55.676,123.788
			c-18.331-7.502-36.661-15.004-54.992-22.506c-5.583-2.285-11.166-4.57-16.749-6.855c-10.228-4.186-23.453-4.101-34.205-2.28
			c-3.461,0.586-18.986,4.594-8.969,8.694c39.032,15.975,78.064,31.949,117.096,47.924c5.583,2.285,11.166,4.57,16.749,6.855
			c0.311,0.127,0.632,0.241,0.95,0.36c22.333,33.816,47.999,65.428,77.116,94.063c106.931,105.157,253.248,164.485,403.658,155.322
			c88.561-5.395,177.606-35.972,247.981-89.96c69.383,49.148,152.096,79.394,235.063,95.558
			c95.548,18.615,196.18,18.967,287.444-18.566c100.044-41.145,179.305-119.432,235.937-210.296
			c51.694-82.942,88.564-178.406,101.493-275.519c0.495-3.715,0.936-7.437,1.349-11.162c14.208,11.546,29.088,22.278,44.561,32.259
			c1.729,1.533,3.875,2.704,6.212,3.576c0.251,0.096,0.51,0.186,0.77,0.275c0.027,0.009,0.054,0.019,0.081,0.028
			c0.256,0.086,0.515,0.169,0.778,0.249c0.132,0.041,0.266,0.08,0.399,0.119c0.13,0.037,0.26,0.076,0.392,0.112
			c4.244,1.187,8.815,1.555,12.486,1.474c2.118,0,4.493-0.133,6.896-0.448c3.785-0.46,7.539-1.364,10.782-3.167
			c0.193-0.107,0.4-0.224,0.614-0.346c0.017-0.009,0.033-0.019,0.05-0.029C2041.392,611.341,2045.934,608.336,2045.15,604.651z
			 M1004.669,827.602c-20.126-49.796-29.507-106.135-26.854-159.779c1.571-31.773,8.229-63.901,18.988-93.819
			c10.291-28.617,26.603-55.921,54.512-70.168c5.979-3.052,11.896-4.717,16.817-5.817c0.336-0.075,1.568-0.246,2.078-0.322
			c0.472-0.048,0.944-0.096,1.417-0.138c-1.367,0.137,1.107,0.039,2.81-0.019c0.651,0.054,1.951,0.137,2.931,0.22
			c-0.652,0.011,5.927,1.177,6.002,1.197c1.587,0.428,5.112,1.58,7.302,2.502c7.479,3.148,14.698,7.85,20.93,13.013
			c25.085,20.78,41.778,51.719,53.243,81.714c23.096,60.424,26.166,127.621,12.615,190.609
			c-13.329,61.96-43.105,119.653-86.319,165.97C1054.226,917.681,1024.154,875.812,1004.669,827.602z M1949.796,521.535
			c-4.755-5.174-15.17-6.113-21.587-6.113c-7.749,0-15.203,1.628-21.587,6.113c-19.729,13.861-38.749,26.655-58.023,39.003
			c21.279-48.721,47.96-95.448,77.037-139.509c2.05-3.106,4.125-6.195,6.215-9.275c8.555,16.065,16.29,32.56,23.087,49.478
			c11.529,28.698,20.312,58.15,27.594,87.664c0.511,2.073,0.997,4.153,1.497,6.229
			C1972.042,544.533,1960.622,533.316,1949.796,521.535z"/>
	</g>
</g>
</svg>
