<svg width="70" height="70" viewBox="0 0 70 70" fill="none" xmlns="http://www.w3.org/2000/svg">
<g clip-path="url(#clip0_2769_43388)">
<path d="M33.9062 33.9062H19.6875V31.0844L20.2344 30.7672C21.9953 29.75 22.9688 28.1422 22.9688 26.25C22.9688 23.2313 20.5188 20.7812 17.5 20.7812C14.4813 20.7812 12.0312 23.2313 12.0312 26.25C12.0312 28.1422 13.0047 29.75 14.7656 30.7672L15.3125 31.0844V33.9062H0V4.375C0 1.95781 1.95781 0 4.375 0H33.9062V2.1875H4.375C3.17188 2.1875 2.1875 3.17188 2.1875 4.375V31.7188H12.3484C10.7406 30.3078 9.84375 28.3828 9.84375 26.25C9.84375 22.0281 13.2781 18.5938 17.5 18.5938C21.7219 18.5938 25.1562 22.0281 25.1562 26.25C25.1562 28.3828 24.2594 30.3078 22.6516 31.7188H33.9062V33.9062Z" fill="#000C36"/>
<path d="M33.9062 70H4.375C1.95781 70 0 68.0422 0 65.625V36.0938H2.1875V65.625C2.1875 66.8281 3.17188 67.8125 4.375 67.8125H31.7188V57.6516C30.3078 59.2594 28.3828 60.1562 26.25 60.1562C22.0281 60.1562 18.5938 56.7219 18.5938 52.5C18.5938 48.2781 22.0281 44.8438 26.25 44.8438C28.3828 44.8438 30.3078 45.7406 31.7188 47.3484V36.0938H33.9062V50.3125H31.0844L30.7672 49.7656C29.75 48.0047 28.1422 47.0312 26.25 47.0312C23.2313 47.0312 20.7812 49.4812 20.7812 52.5C20.7812 55.5187 23.2313 57.9688 26.25 57.9688C28.1422 57.9688 29.75 56.9953 30.7672 55.2344L31.0844 54.6875H33.9062V70Z" fill="#000C36"/>
<path d="M65.625 70H36.0938V67.8125H65.625C66.8281 67.8125 67.8125 66.8281 67.8125 65.625V38.2812H57.7391C59.3141 39.6156 60.1562 41.5078 60.1562 43.75C60.1562 47.9719 56.7219 51.4062 52.5 51.4062C48.2781 51.4062 44.8438 47.9719 44.8438 43.75C44.8438 41.5078 45.6859 39.6156 47.2609 38.2812H36.0938V36.0938H50.3125V38.9484L49.7219 39.2547C47.9391 40.1844 47.0312 41.6937 47.0312 43.75C47.0312 46.7688 49.4812 49.2188 52.5 49.2188C55.5187 49.2188 57.9688 46.7688 57.9688 43.75C57.9688 41.6937 57.0609 40.1734 55.2781 39.2547L54.6875 38.9484V36.0938H70V65.625C70 68.0422 68.0422 70 65.625 70Z" fill="#000C36"/>
<path d="M70 33.9062H67.8125V4.375C67.8125 3.17188 66.8281 2.1875 65.625 2.1875H38.2812V12.3484C39.6922 10.7406 41.6172 9.84375 43.75 9.84375C47.9719 9.84375 51.4062 13.2781 51.4062 17.5C51.4062 21.7219 47.9719 25.1562 43.75 25.1562C41.6172 25.1562 39.6922 24.2594 38.2812 22.6516V33.9062H36.0938V19.6875H38.9156L39.2328 20.2344C40.25 21.9953 41.8578 22.9688 43.75 22.9688C46.7688 22.9688 49.2188 20.5187 49.2188 17.5C49.2188 14.4812 46.7688 12.0312 43.75 12.0312C41.8578 12.0312 40.25 13.0047 39.2328 14.7656L38.9156 15.3125H36.0938V0H65.625C68.0422 0 70 1.95781 70 4.375V33.9062Z" fill="#FF0062"/>
<path d="M33.9062 4.375H31.7188V6.5625H33.9062V4.375Z" fill="#000C36"/>
<path d="M29.5312 4.375H27.3438V6.5625H29.5312V4.375Z" fill="#000C36"/>
<path d="M25.1562 4.375H22.9688V6.5625H25.1562V4.375Z" fill="#000C36"/>
<path d="M47.0312 63.4375H44.8438V65.625H47.0312V63.4375Z" fill="#000C36"/>
<path d="M42.6562 63.4375H40.4688V65.625H42.6562V63.4375Z" fill="#000C36"/>
<path d="M38.2812 63.4375H36.0938V65.625H38.2812V63.4375Z" fill="#000C36"/>
<path d="M6.5625 36.0938H4.375V38.2812H6.5625V36.0938Z" fill="#000C36"/>
<path d="M6.5625 40.4688H4.375V42.6562H6.5625V40.4688Z" fill="#000C36"/>
<path d="M6.5625 44.8438H4.375V47.0312H6.5625V44.8438Z" fill="#000C36"/>
<path d="M65.625 22.9688H63.4375V25.1562H65.625V22.9688Z" fill="#000C36"/>
<path d="M65.625 27.3438H63.4375V29.5312H65.625V27.3438Z" fill="#000C36"/>
<path d="M65.625 31.7188H63.4375V33.9062H65.625V31.7188Z" fill="#000C36"/>
</g>
<defs>
<clipPath id="clip0_2769_43388">
<rect width="70" height="70" fill="white"/>
</clipPath>
</defs>
</svg>
