<svg width="80" height="73" viewBox="0 0 80 73" fill="none" xmlns="http://www.w3.org/2000/svg">
<g clip-path="url(#clip0_2769_43394)">
<path d="M39.9984 73.0003C39.6234 73.0003 39.2485 72.8745 38.9985 72.4969L0.248453 23.4107C-0.126547 23.0331 -0.126547 22.4038 0.123453 22.0262L11.3735 3.14689C11.6235 2.7693 11.9985 2.51758 12.4985 2.51758H47.4984V5.03482H13.2485L2.74845 22.5296L39.9984 69.7279L58.9984 45.8141L60.9984 47.3245L40.9984 72.4969C40.7484 72.8745 40.3734 73.0003 39.9984 73.0003Z" fill="#000C36"/>
<path d="M68.5 37.2555L66.625 35.6193L77.375 22.4038L66.75 5.03482H60V2.51758H67.5C68 2.51758 68.375 2.7693 68.625 3.14689L79.875 22.0262C80.125 22.5296 80.125 23.0331 79.75 23.4107L68.5 37.2555Z" fill="#000C36"/>
<path d="M78.75 21.3965H46.25V23.9137H78.75V21.3965Z" fill="#000C36"/>
<path d="M33.75 21.3965H1.25V23.9137H33.75V21.3965Z" fill="#000C36"/>
<path d="M66.4969 3.03245L52.7422 21.9082L54.7579 23.3974L68.5126 4.52165L66.4969 3.03245Z" fill="#000C36"/>
<path d="M41.0082 3.02986L38.9922 4.51855L52.7422 23.3967L54.7582 21.908L41.0082 3.02986Z" fill="#000C36"/>
<path d="M38.9969 3.03342L25.2422 21.9092L27.2579 23.3984L41.0126 4.52262L38.9969 3.03342Z" fill="#000C36"/>
<path d="M13.5082 3.03083L11.4922 4.51953L25.2422 23.3976L27.2582 21.9089L13.5082 3.03083Z" fill="#000C36"/>
<path d="M27.4372 22.2638L25.0312 22.9473L38.7759 72.0048L41.1819 71.3213L27.4372 22.2638Z" fill="#000C36"/>
<path d="M52.5248 22.3856L38.7852 71.4482L41.1914 72.1314L54.931 23.0688L52.5248 22.3856Z" fill="#000C36"/>
<path d="M55 0H52.5V7.55173H55V0Z" fill="#FF0062"/>
<path d="M57.5 2.51758H50V5.03482H57.5V2.51758Z" fill="#FF0062"/>
<path d="M41.25 18.8789H38.75V26.4306H41.25V18.8789Z" fill="#FF0062"/>
<path d="M43.75 21.3965H36.25V23.9137H43.75V21.3965Z" fill="#FF0062"/>
<path d="M15 49.0859H12.5V56.6377H15V49.0859Z" fill="#FF0062"/>
<path d="M17.5 51.6035H10V54.1208H17.5V51.6035Z" fill="#FF0062"/>
<path d="M65 37.7588H62.5V45.3105H65V37.7588Z" fill="#FF0062"/>
<path d="M67.5 40.2754H60V42.7926H67.5V40.2754Z" fill="#FF0062"/>
</g>
<defs>
<clipPath id="clip0_2769_43394">
<rect width="80" height="73" fill="white"/>
</clipPath>
</defs>
</svg>
