<svg width="76" height="76" viewBox="0 0 76 76" fill="none" xmlns="http://www.w3.org/2000/svg">
<g clip-path="url(#clip0_3113_14643)">
<path d="M14.2494 36.8117C13.9406 36.8117 13.6438 36.693 13.4063 36.4673L8.65625 31.7173L10.3306 30.043L14.2375 33.9498L18.1444 30.043L19.8188 31.7173L15.0688 36.4673C14.8313 36.7048 14.5344 36.8117 14.2256 36.8117H14.2494Z" fill="#000C36"/>
<path d="M15.4375 35.625H13.0625V21.375C13.0625 16.1381 17.3256 11.875 22.5625 11.875H45.125V14.25H22.5625C18.6319 14.25 15.4375 17.4444 15.4375 21.375V35.625Z" fill="#000C36"/>
<path d="M65.6561 43.592L61.7492 39.6852L57.8423 43.592L56.168 41.9177L60.918 37.1677C61.3811 36.7045 62.1292 36.7045 62.5923 37.1677L67.3423 41.9177L65.668 43.592H65.6561Z" fill="#000C36"/>
<path d="M53.4375 61.75H30.875V59.375H53.4375C57.3681 59.375 60.5625 56.1806 60.5625 52.25V38H62.9375V52.25C62.9375 57.4869 58.6744 61.75 53.4375 61.75Z" fill="#000C36"/>
<path d="M38 40.375C33.9387 40.375 30.875 36.5513 30.875 31.4688C30.875 27.8706 31.6825 23.75 38 23.75C44.3175 23.75 45.125 27.8706 45.125 31.4688C45.125 36.5513 42.0612 40.375 38 40.375ZM38 26.125C34.4019 26.125 33.25 27.4194 33.25 31.4688C33.25 34.6394 34.9125 38 38 38C41.0875 38 42.75 34.6394 42.75 31.4688C42.75 27.4194 41.5981 26.125 38 26.125Z" fill="#FF0062"/>
<path d="M47.5 49.8769H28.5C26.5644 49.8769 24.9375 47.7038 24.9375 45.1269V42.0631L33.8438 36.9688L35.0194 39.035L27.3006 43.4406V45.1269C27.3006 46.5756 28.1319 47.5019 28.4881 47.5019H47.4881C47.8444 47.5019 48.6756 46.5756 48.6756 45.1269V43.4406L40.9569 39.035L42.1325 36.9688L51.0387 42.0631V45.1269C51.0387 47.7038 49.4119 49.8769 47.4762 49.8769H47.5Z" fill="#FF0062"/>
<path d="M13.0625 66.5C9.00125 66.5 5.9375 62.6763 5.9375 57.5938C5.9375 53.9956 6.745 49.875 13.0625 49.875C19.38 49.875 20.1875 53.9956 20.1875 57.5938C20.1875 62.6763 17.1237 66.5 13.0625 66.5ZM13.0625 52.25C9.46438 52.25 8.3125 53.5444 8.3125 57.5938C8.3125 60.7644 9.975 64.125 13.0625 64.125C16.15 64.125 17.8125 60.7644 17.8125 57.5938C17.8125 53.5444 16.6606 52.25 13.0625 52.25Z" fill="#000C36"/>
<path d="M22.5625 76.0019H3.5625C1.62688 76.0019 0 73.8287 0 71.2519V68.1881L8.90625 63.0938L10.0819 65.16L2.36313 69.5656V71.2519C2.36313 72.7006 3.19438 73.6269 3.55063 73.6269H22.5506C22.9069 73.6269 23.7381 72.7006 23.7381 71.2519V69.5656L16.0194 65.16L17.195 63.0938L26.1012 68.1881V71.2519C26.1012 73.8287 24.4744 76.0019 22.5387 76.0019H22.5625Z" fill="#000C36"/>
<path d="M62.9375 16.625C58.8762 16.625 55.8125 12.8013 55.8125 7.71875C55.8125 4.12063 56.62 0 62.9375 0C69.255 0 70.0625 4.12063 70.0625 7.71875C70.0625 12.8013 66.9987 16.625 62.9375 16.625ZM62.9375 2.375C59.3394 2.375 58.1875 3.66937 58.1875 7.71875C58.1875 10.8894 59.85 14.25 62.9375 14.25C66.025 14.25 67.6875 10.8894 67.6875 7.71875C67.6875 3.66937 66.5356 2.375 62.9375 2.375Z" fill="#000C36"/>
<path d="M72.4375 26.1269H53.4375C51.5019 26.1269 49.875 23.9537 49.875 21.3769V18.3131L58.7812 13.2188L59.9569 15.285L52.2381 19.6906V21.3769C52.2381 22.8256 53.0694 23.7519 53.4256 23.7519H72.4256C72.7819 23.7519 73.6131 22.8256 73.6131 21.3769V19.6906L65.8944 15.285L67.07 13.2188L75.9762 18.3131V21.3769C75.9762 23.9537 74.3494 26.1269 72.4137 26.1269H72.4375Z" fill="#000C36"/>
</g>
<defs>
<clipPath id="clip0_3113_14643">
<rect width="76" height="76" fill="white"/>
</clipPath>
</defs>
</svg>
